<svg xmlns="http://www.w3.org/2000/svg" width="14.195" height="27" viewBox="0 0 14.195 27">
  <path id="Forma_1" data-name="Forma 1" d="M901.661,5930l-3.4-.005c-3.825,0-6.3,2.608-6.3,6.645v3.064h-3.424a.543.543,0,0,0-.535.551v4.439a.543.543,0,0,0,.535.55h3.423v11.2a.543.543,0,0,0,.535.55h4.466a.543.543,0,0,0,.535-.55v-11.2h4a.543.543,0,0,0,.535-.55l0-4.439a.56.56,0,0,0-.157-.39.527.527,0,0,0-.379-.161h-4v-2.6c0-1.248.289-1.882,1.87-1.882h2.294a.543.543,0,0,0,.535-.551v-4.122A.543.543,0,0,0,901.661,5930Z" transform="translate(-888 -5930)" fill="#fff"/>
</svg>
