<svg xmlns="http://www.w3.org/2000/svg" width="23.045" height="23.562" viewBox="0 0 23.045 23.562">
  <path id="Forma_1" data-name="Forma 1" d="M1022.32,5937.263a1.47,1.47,0,0,1-1.453,1.486h-1.381a1.47,1.47,0,0,1-1.454-1.486v-1.412a1.47,1.47,0,0,1,1.454-1.486h1.381a1.47,1.47,0,0,1,1.453,1.486v1.412Zm0,13.7a1.555,1.555,0,0,1-1.549,1.487H1006.24a1.606,1.606,0,0,1-1.606-1.487v-7.429a1.613,1.613,0,0,1,1.606-1.495h.822a.894.894,0,0,1,.161.015.62.62,0,0,1,.524.577.709.709,0,0,1-.005.15c0,.035.076.072.072.106a5.919,5.919,0,0,0,.036.646h0a5.814,5.814,0,0,0,5.627,5.938c-.036,0-.11.005-.146.005.036,0,.051,0,.087-.005s.061.005.1.005a5.876,5.876,0,0,0,5.807-5.943,5.8,5.8,0,0,0-.045-.646c0-.035,0-.072-.008-.106a.736.736,0,0,1-.006-.15.619.619,0,0,1,.523-.577.893.893,0,0,1,.162-.015h.821a1.562,1.562,0,0,1,1.549,1.5v7.428Zm-11.721-7.429s.231-2.971,2.906-2.971,2.906,2.971,2.906,2.971a2.907,2.907,0,1,1-5.812,0Zm11.5-11.906h-17.234a2.939,2.939,0,0,0-2.906,2.971v17.62a2.939,2.939,0,0,0,2.906,2.971h17.234a2.939,2.939,0,0,0,2.905-2.971V5934.6a2.939,2.939,0,0,0-2.905-2.971" transform="translate(-1001.955 -5931.625)" fill="#fff"/>
</svg>
