<svg xmlns="http://www.w3.org/2000/svg" width="27" height="22" viewBox="0 0 27 22">
  <path id="Forma_1" data-name="Forma 1" d="M970.255,5932.407a11.13,11.13,0,0,1-3.52,1.348,5.538,5.538,0,0,0-9.582,3.8,5.613,5.613,0,0,0,.143,1.266,15.711,15.711,0,0,1-11.416-5.8,5.573,5.573,0,0,0,1.714,7.416,5.527,5.527,0,0,1-2.509-.7v.069a5.557,5.557,0,0,0,4.442,5.448,5.507,5.507,0,0,1-2.5.094,5.55,5.55,0,0,0,5.173,3.859,11.1,11.1,0,0,1-6.878,2.376A11.571,11.571,0,0,1,944,5951.5a15.652,15.652,0,0,0,8.491,2.5c10.188,0,15.759-8.465,15.759-15.806l-.018-.719A11.166,11.166,0,0,0,971,5934.6a11.054,11.054,0,0,1-3.18.875A5.582,5.582,0,0,0,970.255,5932.407Z" transform="translate(-944 -5932)" fill="#fff"/>
</svg>
